<?xml version="1.0" encoding="UTF-8" standalone="no"?>
<svg width="380px" height="380px" viewBox="0 0 380 380" version="1.1" xmlns="http://www.w3.org/2000/svg" xmlns:xlink="http://www.w3.org/1999/xlink" xmlns:sketch="http://www.bohemiancoding.com/sketch/ns">
    <!-- Generator: Sketch 3.4.4 (17249) - http://www.bohemiancoding.com/sketch -->
    <title>Crop</title>
    <desc>Created with Sketch.</desc>
    <defs></defs>
    <g id="Page-1" stroke="none" stroke-width="1" fill="none" fill-rule="evenodd" sketch:type="MSPage">
        <g id="company" sketch:type="MSLayerGroup" transform="translate(44.000000, 0.000000)" fill="#000000">
            <path d="M172.622321,131.88315 L206.901819,131.88315 C209.509526,131.88315 211.643105,129.740025 211.643105,127.12065 L211.643105,92.687775 C211.643105,90.0684 209.509526,87.925275 206.901819,87.925275 L172.622321,87.925275 C170.014614,87.925275 167.881035,90.0684 167.881035,92.687775 L167.881035,127.12065 C167.881035,129.740025 170.014614,131.88315 172.622321,131.88315 L172.622321,131.88315 Z" id="Shape" sketch:type="MSShapeGroup"></path>
            <path d="M119.377679,87.925275 L85.0934401,87.925275 C82.4857328,87.925275 80.3521541,90.0684 80.3521541,92.687775 L80.3521541,127.12065 C80.3521541,129.740025 82.4857328,131.88315 85.0934401,131.88315 L119.377679,131.88315 C121.985386,131.88315 124.118965,129.740025 124.118965,127.12065 L124.118965,92.687775 C124.118965,90.0684 121.985386,87.925275 119.377679,87.925275 L119.377679,87.925275 Z" id="Shape" sketch:type="MSShapeGroup"></path>
            <path d="M172.622321,205.154212 L206.901819,205.154212 C209.509526,205.154212 211.643105,203.011087 211.643105,200.391712 L211.643105,165.954075 C211.643105,163.3347 209.509526,161.191575 206.901819,161.191575 L172.622321,161.191575 C170.014614,161.191575 167.881035,163.3347 167.881035,165.954075 L167.881035,200.391712 C167.881035,203.011088 170.014614,205.154212 172.622321,205.154212 L172.622321,205.154212 Z" id="Shape" sketch:type="MSShapeGroup"></path>
            <path d="M119.377679,161.191575 L85.0934401,161.191575 C82.4857328,161.191575 80.3521541,163.3347 80.3521541,165.954075 L80.3521541,200.391712 C80.3521541,203.011087 82.4857328,205.154212 85.0934401,205.154212 L119.377679,205.154212 C121.985386,205.154212 124.118965,203.011087 124.118965,200.391712 L124.118965,165.954075 C124.118965,163.3347 121.985386,161.191575 119.377679,161.191575 L119.377679,161.191575 Z" id="Shape" sketch:type="MSShapeGroup"></path>
            <path d="M119.377679,234.457875 L85.0934401,234.457875 C82.4857328,234.457875 80.3521541,236.601 80.3521541,239.220375 L80.3521541,273.658012 C80.3521541,276.277387 82.4857328,278.420512 85.0934401,278.420512 L119.377679,278.420512 C121.985386,278.420512 124.118965,276.277387 124.118965,273.658012 L124.118965,239.220375 C124.118965,236.605762 121.985386,234.457875 119.377679,234.457875 L119.377679,234.457875 Z" id="Shape" sketch:type="MSShapeGroup"></path>
            <path d="M287.148084,337.042125 L277.300433,337.042125 L277.300433,19.4167125 C277.300433,16.7973375 275.166854,14.6542125 272.559147,14.6542125 L233.533622,14.6542125 L233.533622,4.7625 C233.533622,2.143125 231.400043,0 228.792336,0 L63.207664,0 C60.5999567,0 58.466378,2.143125 58.466378,4.7625 L58.466378,14.6542125 L19.4455943,14.6542125 C16.837887,14.6542125 14.7043083,16.7973375 14.7043083,19.4167125 L14.7043083,337.042125 L4.851916,337.042125 C2.2442087,337.042125 0.110630006,339.18525 0.110630006,341.804625 L0.110630006,376.2375 C0.110630006,378.856875 2.2442087,381 4.851916,381 L287.148084,381 C289.755791,381 291.88937,378.856875 291.88937,376.2375 L291.88937,341.804625 C291.88937,339.18525 289.75105,337.042125 287.148084,337.042125 L287.148084,337.042125 Z M43.877441,43.9626375 L63.207664,43.9626375 L228.787595,43.9626375 L248.117818,43.9626375 L248.117818,337.037362 L211.647846,337.037362 L211.647846,254.250825 C211.647846,251.426663 209.348322,249.11685 206.53674,249.11685 L172.996882,249.11685 C170.1853,249.11685 167.885776,251.426662 167.885776,254.250825 L167.885776,337.037362 L43.877441,337.037362 L43.877441,43.9626375 L43.877441,43.9626375 Z" id="Shape" sketch:type="MSShapeGroup"></path>
        </g>
    </g>
</svg>