<?xml version="1.0" encoding="UTF-8" standalone="no"?>
<svg width="380px" height="380px" viewBox="0 0 380 380" version="1.1" xmlns="http://www.w3.org/2000/svg" xmlns:xlink="http://www.w3.org/1999/xlink" xmlns:sketch="http://www.bohemiancoding.com/sketch/ns">
    <!-- Generator: Sketch 3.4.4 (17249) - http://www.bohemiancoding.com/sketch -->
    <title>Crop</title>
    <desc>Created with Sketch.</desc>
    <defs></defs>
    <g id="Page-1" stroke="none" stroke-width="1" fill="none" fill-rule="evenodd" sketch:type="MSPage">
        <g id="group" sketch:type="MSLayerGroup" transform="translate(0.000000, 63.000000)" fill="#000000">
            <path d="M105.545,171.5135 L119.430833,168.036875 C121.774167,167.4495 123.721667,165.83025 124.719167,163.623625 C125.716667,161.432875 125.669167,158.892875 124.576667,156.733875 C122.185833,152.034875 120.206667,147.145375 118.686667,142.1765 C118.2275,140.636625 117.293333,139.271375 116.0425,138.27125 C108.965,132.6515 104.468333,124.6505 103.36,115.697 L100.779167,95.011875 C99.6233333,85.7885 102.330833,76.374625 108.189167,69.18325 C109.4875,67.579875 110.120833,65.547875 109.946667,63.5 C109.661667,60.086875 109.471667,56.911875 109.471667,54.562375 C109.471667,44.3865 111.134167,35.2425 114.443333,27.40025 C115.52,24.812625 115.171667,21.828125 113.493333,19.573875 C111.815,17.319625 109.0125,16.049625 106.289167,16.41475 C98.1191667,17.287875 91.105,19.637375 84.93,23.5585 C49.59,24.717375 45.4258333,43.703875 45.4258333,58.00725 C45.4258333,60.96 45.98,66.627375 46.4708333,71.199375 C45.0933333,72.024875 43.8266667,73.05675 42.7341667,74.295 C39.7891667,77.62875 38.4275,82.07375 38.9816667,86.502875 L40.8816667,101.679375 C41.5625,107.235625 45.1408333,111.79175 50.4291667,113.95075 C52.345,123.60275 56.9683333,132.984875 63.4758333,140.36675 L61.9875,146.3675 L35.3875,153.035 C14.535,158.242 0,176.926875 0,198.453375 C0,202.834875 3.54666667,206.390875 7.91666667,206.390875 L54.4666667,206.390875 C57.095,206.390875 59.5333333,205.089125 61.0058333,202.91425 C71.6933333,187.198 87.5108333,176.037875 105.545,171.5135 L105.545,171.5135 Z M270.623333,186.928125 L232.670833,177.419 L230.074167,167.020875 C240.080833,156.62275 247.031667,142.795625 249.47,128.524 C255.534167,126.14275 260.094167,120.570625 260.933333,113.76025 L263.514167,93.05925 C264.163333,87.899875 262.564167,82.70875 259.175833,78.787625 C257.64,77.0255 255.7875,75.580875 253.745,74.533125 L254.5525,57.991375 L257.719167,54.8005 C263.039167,49.133125 270.211667,36.941125 258.574167,19.129375 C250.293333,6.44525 236.36,0.015875 217.154167,0.015875 C209.823333,0.015875 193.055833,0.015875 177.159167,10.414 C131.258333,11.636375 125.289167,34.559875 125.289167,54.530625 C125.289167,58.8645 126.2075,67.7545 126.935833,74.168 C124.655833,75.21575 122.5975,76.73975 120.903333,78.660625 C117.435833,82.597625 115.836667,87.836375 116.485833,93.0275 L119.066667,113.7285 C119.969167,121.015125 125.083333,126.873 131.796667,128.93675 C134.219167,142.58925 140.79,155.876625 150.179167,166.036625 L147.345,177.38725 L109.3925,186.896375 C82.2858333,193.690875 63.3491667,218.011375 63.3491667,246.046625 C63.3491667,250.428125 66.8958333,253.984125 71.2658333,253.984125 L308.765833,253.984125 C313.135833,253.984125 316.6825,250.41225 316.6825,246.03075 C316.666667,218.02725 297.73,193.722625 270.623333,186.928125 L270.623333,186.928125 Z M344.628333,153.019125 L318.028333,146.351625 L316.714167,141.081125 C323.649167,133.524625 328.541667,123.809125 330.489167,113.712625 C335.080833,111.47425 338.453333,107.02925 339.118333,101.6635 L341.018333,86.487 C341.5725,82.1055 340.226667,77.69225 337.345,74.374375 C336.3475,73.231375 335.191667,72.247125 333.940833,71.453375 L334.431667,61.43625 L336.220833,59.642375 C340.543333,55.02275 346.4175,45.1485 337.075833,30.861 C332.610833,24.03475 323.411667,15.890875 304.934167,15.890875 C297.429167,15.890875 290.810833,16.906875 284.699167,19.01825 C280.8675,20.335875 278.650833,24.336375 279.553333,28.305125 C282.2925,40.22725 280.0125,51.609625 272.966667,61.24575 C270.924167,64.03975 270.924167,67.833875 272.950833,70.627875 C278.096667,77.69225 280.329167,86.36 279.2525,95.011875 L276.671667,115.72875 C275.6425,124.063125 271.573333,131.714875 265.208333,137.25525 C264.068333,138.255375 263.229167,139.557125 262.801667,141.00175 C261.186667,146.46275 259.049167,151.8285 256.420833,156.956125 C255.3125,159.115125 255.249167,161.655125 256.246667,163.86175 C257.244167,166.068375 259.2075,167.7035 261.535,168.275 L274.470833,171.5135 C292.505,176.037875 308.3225,187.182125 319.01,202.91425 C320.4825,205.089125 322.936667,206.390875 325.549167,206.390875 L372.083333,206.390875 C376.453333,206.390875 380,202.819 380,198.4375 C380,176.911 365.465,158.242 344.628333,153.019125 L344.628333,153.019125 Z" id="Shape" sketch:type="MSShapeGroup"></path>
        </g>
    </g>
</svg>