<?xml version="1.0" encoding="UTF-8" standalone="no"?>
<svg width="380px" height="380px" viewBox="0 0 380 380" version="1.1" xmlns="http://www.w3.org/2000/svg" xmlns:xlink="http://www.w3.org/1999/xlink" xmlns:sketch="http://www.bohemiancoding.com/sketch/ns">
    <!-- Generator: Sketch 3.4.4 (17249) - http://www.bohemiancoding.com/sketch -->
    <title>Crop</title>
    <desc>Created with Sketch.</desc>
    <defs></defs>
    <g id="Page-1" stroke="none" stroke-width="1" fill="none" fill-rule="evenodd" sketch:type="MSPage">
        <g id="user" sketch:type="MSLayerGroup" fill="#000000">
            <path d="M310.696469,279.65625 L253.880005,265.43 L249.992687,249.87375 C264.973082,234.3175 275.378767,213.63125 279.029053,192.28 C288.107362,188.7175 294.933871,180.38125 296.190138,170.1925 L300.053752,139.2225 C301.025582,131.50375 298.631563,123.7375 293.559088,117.87125 C291.259882,115.235 288.486612,113.07375 285.428905,111.50625 L286.637766,86.75875 L291.378397,81.985 C299.342658,73.50625 310.080187,55.26625 292.658368,28.61875 C280.261617,9.6425 259.40284,0.02375 230.650912,0.02375 C219.676351,0.02375 194.574709,0.02375 170.776741,15.58 C102.061292,17.40875 93.1252022,51.70375 93.1252022,81.58125 C93.1252022,88.065 94.4999852,101.365 95.5903304,110.96 C92.1770759,112.5275 89.0956657,114.8075 86.559428,117.68125 C81.3684369,123.57125 78.9744181,131.40875 79.9462475,139.175 L83.8098619,170.145 C85.1609418,181.04625 92.8170611,189.81 102.867199,192.8975 C106.493782,213.3225 116.330592,233.20125 130.386563,248.40125 L126.143698,265.3825 L69.3272337,279.60875 C28.747431,289.77375 0.398456607,326.15875 0.398456607,368.10125 C0.398456607,374.65625 5.70796351,379.97625 12.2500345,379.97625 L367.797372,379.97625 C374.339443,379.97625 379.64895,374.6325 379.64895,368.0775 C379.625247,326.1825 351.276272,289.82125 310.696469,279.65625 L310.696469,279.65625 Z" id="Shape" sketch:type="MSShapeGroup"></path>
        </g>
    </g>
</svg>